{"title":"Salt.2010.R5.CUSTOM.SWESUB.DVDRiP.x264.mkv.Zen_Bud","uid":5797018,"size":841580514,"categoryP":"video","categoryS":"movies","magnet":"?xt=urn:btih:a6acca538c899a0c7d744519cb8e3af2277a4373&amp;dn=Salt.2010.R5.CUSTOM.SWESUB.DVDRiP.x264.mkv.Zen_Bud&amp;tr=udp%3A%2F%2Ftracker.openbittorrent.com%3A80&amp;tr=udp%3A%2F%2Fopen.demonii.com%3A1337&amp;tr=udp%3A%2F%2Ftracker.coppersurfer.tk%3A6969&amp;tr=udp%3A%2F%2Fexodus.desync.com%3A6969","seeders":0,"leechers":0,"uploader":"Zen_Bud","files":-1,"time":1283096162,"description":"General\nComplete name                    : Salt 2010 R5.mkv\nFormat                           : Matroska\nFile size                        : 803 MiB\nDuration                         : 1h 35mn\nOverall bit rate                 : 1 170 Kbps\nWriting application              : HandBrake 0.9.4\n\nVideo\n\nFormat                           : AVC\nDuration                         : 1h 35mn\nBit rate                         : 1 036 Kbps\nWidth                            : 720 pixels\nHeight                           : 364 pixels\nDisplay aspect ratio             : 2.35:1\nStream size                      : 699 MiB (87%)\nWriting library                  : x264 core 79\nAudio\n\nFormat                           : MPEG Audio\nCodec ID/Hint                    : MP3\nDuration                         : 1h 35mn\nBit rate                         : 128 Kbps\nChannel(s)                       : 2 channels\nSampling rate                    : 48.0 KHz\nStream size                      : 87.8 MiB (11%)\nLanguage                         : English\n\nText        \nLanguage                         : Swedish\n\n\n        *************THX to robin8 &amp; Toya***************\n\n               -------------Swesub.nu-------------\n\n\nMenu\n00:00:00.000                     : Chapter 1\n00:07:02.638                     : Chapter 2\n\n\n","torrent":{"xt":"urn:btih:a6acca538c899a0c7d744519cb8e3af2277a4373","amp;dn":"Salt.2010.R5.CUSTOM.SWESUB.DVDRiP.x264.mkv.Zen_Bud","amp;tr":["udp%3A%2F%2Ftracker.openbittorrent.com%3A80","udp%3A%2F%2Fopen.demonii.com%3A1337","udp%3A%2F%2Ftracker.coppersurfer.tk%3A6969","udp%3A%2F%2Fexodus.desync.com%3A6969"],"infoHash":"a6acca538c899a0c7d744519cb8e3af2277a4373","infoHashBuffer":{"type":"Buffer","data":[166,172,202,83,140,137,154,12,125,116,69,25,203,142,58,242,39,122,67,115]},"announce":[],"urlList":[]}}